<svg width="634" height="66" viewBox="0 0 634 66" fill="none" xmlns="http://www.w3.org/2000/svg">
<path d="M357.375 22.5H357.875V22V15.7143C357.875 12.9651 356.913 10.6115 354.995 8.68317C353.078 6.75468 350.736 5.78571 348 5.78571C345.264 5.78571 342.922 6.75468 341.005 8.68317C339.205 10.4936 338.246 12.6788 338.136 15.2143H332.882C332.994 11.2142 334.465 7.80029 337.301 4.9474C340.253 1.97863 343.81 0.5 348 0.5C352.19 0.5 355.748 1.97864 358.702 4.94752C361.654 7.91849 363.125 11.4979 363.125 15.7143V22V22.5H363.625H366.75C368.334 22.5 369.679 23.0607 370.811 24.1971C371.941 25.3359 372.5 26.6897 372.5 28.2857V59.7143C372.5 61.3103 371.941 62.6641 370.811 63.8029C369.679 64.9393 368.334 65.5 366.75 65.5H329.25C327.666 65.5 326.322 64.9391 325.192 63.8026C324.06 62.6637 323.5 61.31 323.5 59.7143V28.2857C323.5 26.69 324.06 25.3363 325.192 24.1974C326.322 23.0609 327.666 22.5 329.25 22.5H357.375ZM352.77 48.7937L352.77 48.7931C354.086 47.4679 354.75 45.8612 354.75 44C354.75 42.1388 354.086 40.5321 352.77 39.2069L352.77 39.2063C351.452 37.8832 349.853 37.2143 348 37.2143C346.147 37.2143 344.549 37.8833 343.233 39.2066C341.915 40.5317 341.25 42.1386 341.25 44C341.25 45.8614 341.915 47.4683 343.233 48.7934C344.549 50.1167 346.147 50.7857 348 50.7857C349.853 50.7857 351.452 50.1168 352.77 48.7937Z" stroke="white"/>
<mask id="path-2-outside-1_4_30" maskUnits="userSpaceOnUse" x="0" y="8" width="634" height="58" fill="black">
<rect fill="white" y="8" width="634" height="58"/>
<path d="M1 57V49H17V57H41V41H9V33H1V17H9V9H41V17H49V25H33V17H17V33H49V41H57V57H49V65H9V57H1ZM81 9V33H105V9H121V65H105V41H81V65H65V9H81ZM185 9V17H145V33H177V41H145V57H185V65H129V9H185ZM241 9V17H249V41H233V49H241V57H249V65H225V57H217V49H209V65H193V9H241ZM209 41H225V33H233V17H209V41ZM273 9V57H313V65H257V9H273ZM393 57V49H385V25H393V17H401V9H433V17H441V25H425V17H409V25H401V49H409V57H425V49H441V57H433V65H401V57H393ZM465 9V33H473V25H481V17H489V9H505V17H497V25H489V33H481V41H489V49H497V57H505V65H481V57H473V49H465V65H449V9H465ZM569 9V17H529V33H561V41H529V57H569V65H513V9H569ZM617 9V17H625V25H633V49H625V57H617V65H577V9H617ZM593 57H609V49H617V25H609V17H593V57Z"/>
</mask>
<path d="M1 57V49H17V57H41V41H9V33H1V17H9V9H41V17H49V25H33V17H17V33H49V41H57V57H49V65H9V57H1ZM81 9V33H105V9H121V65H105V41H81V65H65V9H81ZM185 9V17H145V33H177V41H145V57H185V65H129V9H185ZM241 9V17H249V41H233V49H241V57H249V65H225V57H217V49H209V65H193V9H241ZM209 41H225V33H233V17H209V41ZM273 9V57H313V65H257V9H273ZM393 57V49H385V25H393V17H401V9H433V17H441V25H425V17H409V25H401V49H409V57H425V49H441V57H433V65H401V57H393ZM465 9V33H473V25H481V17H489V9H505V17H497V25H489V33H481V41H489V49H497V57H505V65H481V57H473V49H465V65H449V9H465ZM569 9V17H529V33H561V41H529V57H569V65H513V9H569ZM617 9V17H625V25H633V49H625V57H617V65H577V9H617ZM593 57H609V49H617V25H609V17H593V57Z" stroke="white" stroke-width="2" mask="url(#path-2-outside-1_4_30)"/>
</svg>
